P2
150 65
15
9 9 9 9 9 9 10 10 10 10 10 10 10 10 10 10 10 10 10 10 11 11 11 11 11 11 11 11 11 11 11 11 11 11 11 12 12 12 12 12 12 12 12 12 12 12 12 12 12 12 12 13 13 13 13 13 13 13 13 13 13 13 13 13 13 13 13 13 13 13 13 13 13 13 13 13 13 13 13 13 13 13 13 13 13 13 13 14 14 14 13 13 14 14 14 14 14 14 14 14 14 14 14 14 13 14 14 13 13 13 13 13 13 13 13 13 13 13 13 13 13 13 13 13 13 13 13 13 13 13 13 13 13 13 13 13 13 13 13 13 13 13 13 13 13 13 13 13 13 12
9 10 10 10 10 10 10 10 10 10 10 10 10 10 11 11 11 11 11 11 11 11 11 11 11 11 11 11 12 12 12 12 12 12 12 12 12 12 12 12 12 12 13 13 13 13 13 13 13 13 13 13 13 13 13 13 13 13 13 13 13 13 14 14 14 14 14 14 14 14 14 14 14 14 14 14 14 14 14 14 14 14 14 14 14 14 14 14 14 14 14 14 14 14 14 14 14 14 14 14 14 14 14 14 14 14 14 14 14 14 14 14 14 14 14 14 14 14 14 14 14 14 14 14 14 14 14 14 14 14 14 14 14 14 14 14 14 14 14 14 14 14 14 14 14 14 13 13 14 13
9 10 10 10 10 10 10 10 10 10 10 10 10 11 11 11 11 11 11 11 11 11 11 11 11 11 11 11 11 12 12 12 12 12 12 12 12 12 12 12 13 13 13 13 13 13 13 13 13 13 13 13 13 13 13 13 13 13 13 13 13 13 14 14 14 14 14 14 14 14 14 14 14 14 14 14 14 14 14 14 14 14 14 14 14 14 14 14 14 14 14 14 14 14 14 14 14 14 14 14 14 14 14 14 14 14 14 14 14 14 14 14 14 14 14 14 14 14 14 14 14 14 14 14 14 14 14 14 14 14 14 14 14 14 14 14 14 14 14 14 14 14 14 14 14 13 13 13 13 13
9 10 10 10 10 10 10 10 10 10 10 10 10 11 11 11 11 11 11 11 11 11 11 11 11 11 12 12 12 12 12 12 12 12 12 12 12 12 13 13 13 13 13 13 13 13 13 13 13 13 13 13 13 13 13 13 13 13 13 13 14 14 14 14 14 14 14 14 14 14 14 14 14 14 14 14 13 14 14 14 14 14 14 14 14 14 14 14 14 14 14 14 14 14 14 14 14 14 14 14 14 14 14 14 14 14 14 14 14 14 14 14 14 14 14 14 14 14 14 14 14 14 14 14 14 14 14 14 14 14 14 14 14 14 14 14 14 14 14 14 14 14 13 14 14 14 13 13 14 13
9 10 10 10 10 10 10 10 10 10 10 10 10 11 11 11 11 11 11 11 11 11 11 11 11 12 12 12 12 12 12 12 12 12 12 12 12 12 13 13 13 13 13 13 13 13 13 13 13 13 13 13 13 13 13 13 13 13 13 14 14 14 14 14 14 14 14 14 14 14 14 14 14 14 14 14 14 14 14 14 14 14 13 14 14 14 14 14 14 14 14 14 14 14 14 14 14 14 14 14 14 14 14 14 14 14 14 14 14 14 14 14 14 14 14 14 14 14 14 14 14 14 14 14 14 14 14 14 14 14 14 14 14 14 14 14 14 14 14 14 14 14 13 13 14 14 13 13 13 13
9 10 10 10 10 10 10 10 10 10 10 11 11 11 11 11 11 11 11 11 11 11 11 12 12 12 12 12 12 12 12 12 12 12 12 12 12 12 13 13 13 13 13 13 13 13 13 13 13 13 13 13 13 13 13 13 13 13 13 14 14 13 13 14 14 14 14 14 14 15 14 14 13 13 12 12 12 12 11 11 12 14 14 14 14 14 13 13 13 13 14 14 14 14 14 14 14 14 14 14 14 14 14 14 14 14 14 14 14 14 14 14 14 14 14 14 14 14 14 14 14 14 14 14 14 14 14 14 14 14 14 14 14 14 14 14 14 14 14 14 13 14 13 13 14 14 13 13 13 13
9 10 10 10 10 10 10 10 10 10 11 11 11 11 11 11 11 11 11 12 12 12 12 12 12 12 12 12 12 12 12 12 12 12 12 13 12 12 13 13 13 13 13 13 13 13 13 13 13 13 13 13 13 13 13 13 13 13 14 13 14 14 14 14 13 12 11 9 8 8 6 4 3 2 2 2 2 2 2 2 4 5 7 12 12 11 13 13 13 14 14 14 14 14 14 14 14 14 14 14 14 14 14 14 14 14 14 14 14 14 14 14 14 14 14 14 14 14 14 14 14 14 14 14 14 14 14 14 14 14 14 14 14 14 14 14 14 14 14 14 14 14 13 13 14 13 13 13 13 13
9 10 10 10 10 10 10 10 10 11 11 11 11 11 11 11 11 11 11 11 12 12 12 12 12 12 12 12 12 12 12 12 12 12 12 13 13 13 13 13 13 13 13 13 13 13 13 13 13 13 13 13 13 13 13 13 13 13 14 14 13 11 7 5 3 2 1 1 1 1 1 1 2 2 2 1 2 2 2 2 3 3 2 4 4 4 6 6 6 9 12 14 14 13 14 14 14 14 14 14 14 14 14 14 14 14 14 14 14 14 14 14 14 14 14 14 14 14 14 14 14 14 14 14 14 14 14 14 14 14 14 14 14 14 14 14 14 14 14 14 14 14 14 13 13 13 13 13 13 13
9 10 10 10 10 11 11 11 11 11 11 11 11 11 11 11 11 11 11 12 12 12 12 12 12 12 12 12 12 12 12 12 12 13 13 13 13 13 13 13 13 13 13 13 13 13 13 13 13 13 13 13 13 13 14 13 13 14 13 8 3 1 1 1 1 1 1 1 2 2 2 2 2 2 2 2 2 2 3 3 3 3 4 4 3 3 3 2 1 2 4 8 12 13 13 14 14 14 14 14 14 14 14 14 14 14 14 14 14 14 14 14 14 14 14 14 14 14 14 14 14 14 14 14 14 14 14 14 14 14 14 14 14 14 14 14 14 14 14 14 13 14 14 13 13 13 13 13 13 13
10 10 10 10 11 11 11 11 11 11 11 11 11 11 11 11 11 11 11 12 12 12 12 12 12 12 12 12 12 12 13 13 12 13 13 13 13 13 13 13 13 13 13 13 13 13 13 13 13 13 13 13 13 13 13 13 13 11 5 1 1 1 1 1 1 1 2 2 2 3 3 3 3 3 3 3 3 3 3 3 3 3 4 5 3 3 3 3 2 2 1 1 3 8 12 12 13 13 13 14 14 14 14 14 14 14 14 14 14 14 14 14 14 14 14 14 14 14 14 14 14 14 14 14 14 14 14 14 14 14 14 14 14 14 14 14 14 14 14 14 14 14 14 13 13 13 13 13 14 13
10 10 10 10 11 11 11 11 11 11 11 11 11 11 11 11 11 11 12 12 12 12 12 12 12 11 12 13 12 13 12 12 12 13 13 13 13 13 13 13 13 13 13 13 13 13 13 13 13 13 13 13 13 13 13 13 11 4 1 2 1 1 1 1 2 1 2 2 3 3 3 4 3 3 3 3 3 3 3 2 3 3 4 6 3 3 3 3 2 2 2 2 1 1 6 11 12 12 12 13 13 14 14 14 14 14 14 14 14 14 14 14 14 14 14 14 14 14 14 14 14 14 14 14 14 14 14 14 14 14 14 14 14 14 14 14 14 14 14 14 14 13 13 13 13 13 14 13 13 13
10 10 10 11 11 11 11 11 11 11 11 11 11 11 11 11 11 12 12 12 12 12 12 12 12 12 12 12 12 12 12 12 12 12 13 13 13 13 13 13 13 13 13 13 13 13 13 13 13 13 13 13 13 13 14 12 4 2 1 1 1 1 2 2 2 2 2 3 3 3 3 3 3 4 3 3 3 3 3 4 4 4 5 4 3 3 3 3 2 2 1 1 1 1 1 4 11 12 12 12 12 13 13 14 14 14 14 14 14 14 14 14 14 14 14 14 14 14 14 14 14 14 14 14 14 14 14 14 14 14 14 14 14 14 14 14 14 14 14 14 14 13 13 13 13 13 13 13 13 13
10 10 10 11 11 11 11 11 11 11 11 11 11 11 11 11 11 12 12 12 12 12 12 12 12 12 12 12 12 12 12 13 13 13 13 13 13 13 13 13 13 13 13 13 13 13 13 13 13 13 13 13 13 13 10 3 1 1 1 1 1 1 2 2 2 2 2 3 3 4 4 3 2 2 3 3 3 3 3 5 6 7 5 3 3 3 3 4 3 2 2 1 1 1 1 1 4 11 12 12 12 12 13 13 14 14 14 14 14 14 14 14 14 14 14 14 14 14 14 14 14 14 14 14 14 14 14 14 14 14 14 14 14 14 14 14 14 14 14 14 14 13 13 13 13 13 13 13 13 13
10 11 10 11 11 11 11 11 11 11 11 11 11 11 11 11 11 12 12 12 12 12 12 12 12 12 11 12 12 12 12 12 13 13 13 13 13 13 13 13 13 13 13 13 13 13 13 13 13 13 13 13 13 7 1 1 1 1 1 1 1 1 2 2 2 3 3 3 3 4 4 4 3 3 2 2 2 3 3 4 6 7 5 5 5 3 3 3 3 3 2 2 2 2 2 2 1 5 12 12 12 12 12 13 13 14 14 14 14 14 14 14 14 14 14 14 14 14 14 14 14 14 14 14 14 14 14 14 14 14 14 14 14 14 14 14 14 14 14 14 13 13 13 13 13 13 13 13 14 13
10 11 10 11 11 11 11 11 11 11 11 11 11 11 11 11 11 12 12 12 12 12 12 12 12 12 11 12 12 12 12 12 12 13 13 13 13 13 13 13 13 13 13 13 13 13 13 13 13 13 13 12 9 2 1 2 1 1 1 1 2 3 3 3 4 5 5 5 4 4 4 4 4 4 4 5 5 5 5 5 7 8 8 7 6 4 3 3 3 3 2 2 1 2 1 1 2 1 8 12 12 12 12 12 13 13 14 14 14 14 14 14 14 14 14 14 14 14 14 14 14 14 14 14 14 14 14 14 14 14 14 14 14 14 14 14 14 14 14 14 13 13 13 14 13 13 13 13 14 13
10 11 11 11 11 11 11 11 11 11 11 11 11 11 11 12 11 12 12 12 12 12 12 12 12 12 12 12 12 12 12 12 12 13 13 13 13 13 13 13 13 13 13 13 13 13 13 13 13 13 13 8 2 4 3 3 3 3 2 2 2 4 5 6 7 8 9 9 9 8 8 8 8 9 10 10 11 11 11 11 10 10 9 9 9 7 5 4 4 3 2 1 1 1 1 1 2 1 3 11 12 12 12 12 12 13 13 14 14 14 14 14 14 14 14 14 14 14 14 14 14 14 14 14 14 14 14 14 14 14 14 14 14 14 14 14 14 14 14 14 13 13 13 14 13 13 13 13 14 13
10 11 11 11 11 11 11 11 11 11 11 11 11 11 11 11 11 11 12 12 12 12 12 12 12 12 12 12 12 12 12 12 12 13 13 13 13 13 13 13 13 13 13 13 13 13 13 13 13 14 12 3 1 2 2 3 3 4 4 4 5 6 7 8 9 10 10 10 11 11 11 11 12 12 12 12 12 12 12 12 12 11 11 10 9 8 7 5 4 3 2 1 2 1 1 1 2 2 1 7 12 12 12 12 12 13 13 14 14 14 14 14 14 14 14 14 14 14 14 14 14 14 14 14 14 14 14 14 14 14 14 14 14 14 14 14 14 14 14 14 14 13 13 13 13 13 13 13 13 13
10 11 11 11 11 11 11 11 11 11 11 11 11 11 11 11 12 12 12 12 12 12 12 12 12 12 12 12 12 12 12 12 13 13 13 13 13 13 13 13 13 13 13 13 13 13 13 13 13 13 7 2 1 1 1 2 2 3 4 6 7 8 9 9 10 11 12 12 12 12 13 13 12 12 13 13 13 13 13 12 12 12 12 11 10 9 8 7 5 4 2 1 1 1 1 1 1 2 2 3 11 12 12 12 12 12 13 13 14 14 14 14 14 14 14 14 14 14 14 14 14 14 14 14 14 14 14 14 14 14 14 14 14 14 14 14 14 14 14 14 13 13 13 13 13 13 13 13 13 13
10 11 11 11 11 11 11 11 11 11 11 11 11 11 11 11 12 12 12 12 12 12 12 12 12 12 12 12 12 12 12 12 13 13 13 13 13 13 13 13 13 13 13 13 13 13 13 13 14 8 8 3 1 1 1 1 2 5 8 8 8 9 10 11 11 12 12 12 12 13 13 13 13 13 13 13 13 13 13 12 12 12 12 12 11 10 9 8 7 5 4 2 1 1 1 1 1 1 2 2 9 13 12 12 12 12 13 13 14 14 14 14 14 14 14 14 14 14 14 14 14 14 14 14 14 14 14 14 14 14 14 14 14 14 14 14 14 14 14 13 13 13 13 13 13 13 13 13 13 13
10 11 11 11 11 11 11 11 11 11 11 11 11 11 11 12 12 12 12 12 12 12 12 12 12 12 12 12 12 12 12 12 13 13 13 13 13 13 13 13 13 13 13 13 13 13 13 13 12 7 10 2 1 1 1 2 5 8 9 9 10 10 11 11 12 12 11 12 12 13 13 13 13 13 13 13 13 13 13 13 13 12 12 12 11 11 10 9 8 7 6 4 3 1 1 1 1 1 2 1 7 13 12 12 12 12 12 13 14 14 14 14 14 14 14 14 14 14 14 14 14 14 14 14 14 14 14 14 14 14 14 14 14 14 14 14 14 14 14 13 13 14 13 13 13 13 13 13 13 13
10 11 11 11 11 11 11 11 11 11 11 11 11 11 11 11 12 12 12 12 12 12 12 12 12 12 12 12 12 12 12 12 13 13 13 13 13 13 13 13 13 13 13 13 13 13 13 14 10 9 9 1 1 1 1 4 7 8 9 10 10 11 11 11 11 11 10 11 12 13 13 13 13 13 13 13 13 13 13 13 12 12 12 12 11 11 10 10 9 9 8 6 4 3 1 1 1 1 1 1 4 12 12 12 12 12 12 13 13 14 14 14 14 14 14 14 14 14 14 14 14 14 14 14 14 14 14 14 14 14 14 14 14 14 14 14 14 13 13 13 14 14 13 13 13 13 13 13 13 13
10 11 11 11 11 11 11 11 11 11 11 11 11 11 11 12 12 12 12 12 12 12 12 12 12 12 12 12 12 12 12 12 13 13 13 13 13 13 13 13 13 13 13 13 13 13 13 13 11 9 6 1 1 1 2 5 7 8 9 10 10 11 11 11 11 11 12 11 12 13 13 13 13 13 13 13 13 13 13 13 12 12 12 12 12 11 11 10 10 9 9 8 7 5 3 1 1 1 2 2 3 10 12 12 12 12 12 13 13 14 14 14 14 14 14 14 14 14 14 14 14 14 14 14 14 14 14 14 14 14 14 14 14 14 14 14 14 14 13 13 13 14 13 13 13 13 13 13 13 13
10 11 11 11 11 11 11 11 11 11 11 11 11 11 12 12 12 12 12 12 12 12 12 12 12 12 12 12 12 12 12 12 13 13 13 13 13 13 13 13 13 13 13 13 13 13 13 13 11 8 3 1 1 1 2 4 7 8 9 10 10 11 11 11 12 11 12 12 12 13 13 13 13 13 13 13 13 13 13 13 12 12 12 12 11 11 11 10 10 10 9 9 8 6 4 3 1 1 1 2 3 8 12 12 12 12 12 12 13 13 14 14 14 14 14 14 14 14 14 14 14 14 14 14 14 14 14 14 14 14 14 14 14 14 14 14 14 14 14 14 14 13 13 13 13 13 13 13 13 13
10 11 11 11 11 11 11 11 11 11 11 11 11 11 12 12 12 12 12 12 12 12 12 12 12 12 12 12 12 12 12 12 13 13 13 13 13 13 13 13 13 13 13 13 13 13 13 13 13 7 2 1 1 1 2 5 7 8 10 10 11 11 12 12 12 12 12 12 13 13 13 13 13 13 13 13 13 13 13 13 13 13 12 12 12 12 12 11 11 10 9 9 8 7 5 3 2 1 1 1 2 4 11 12 12 12 12 12 13 13 14 14 14 14 14 14 14 14 14 14 14 14 14 14 14 14 14 14 14 14 14 14 14 14 14 14 14 14 14 14 14 13 13 13 13 13 13 13 13 13
10 11 11 11 11 11 11 11 11 11 11 11 11 11 12 12 12 12 12 12 12 12 12 12 12 12 12 12 12 12 12 13 13 13 13 13 13 13 13 13 13 13 13 13 13 13 13 13 14 8 1 1 1 1 2 6 8 9 10 11 11 11 11 12 12 13 13 12 13 13 13 13 13 13 13 13 14 14 14 14 13 13 13 13 12 12 11 11 11 10 10 9 9 8 6 3 2 1 2 2 1 2 10 13 12 12 12 12 12 13 14 14 14 14 14 14 14 14 14 14 14 14 14 14 14 14 14 14 14 14 14 14 14 14 14 14 14 14 14 14 14 13 13 13 13 13 13 13 13 13
10 11 11 11 11 11 11 11 11 11 11 11 11 11 11 12 12 12 12 12 12 12 12 12 12 12 12 12 12 12 12 12 12 12 13 13 13 13 13 13 13 13 13 13 13 13 13 13 13 10 1 1 1 1 3 7 8 9 10 10 9 8 7 8 9 10 12 12 12 12 12 12 13 13 13 13 13 13 13 13 13 12 11 11 10 9 9 9 10 10 10 10 9 8 7 5 2 2 2 3 2 5 12 12 12 12 12 12 12 13 13 14 14 14 14 14 14 14 14 14 14 14 14 14 14 14 14 14 14 14 14 14 14 14 14 14 14 14 14 13 13 13 13 13 13 13 13 13 13 13
10 11 11 11 11 11 11 11 11 11 11 11 11 11 12 12 12 12 12 12 12 12 12 12 12 12 12 12 12 12 12 12 12 12 13 13 13 13 13 13 13 13 13 13 13 13 13 13 14 7 1 1 1 2 6 8 8 6 6 7 7 7 6 6 6 6 6 8 9 10 11 12 12 12 12 12 12 12 11 9 9 7 5 5 5 5 6 7 7 7 7 7 8 9 8 7 3 1 2 3 3 10 13 12 12 12 12 12 12 13 13 14 14 14 14 14 14 14 14 14 14 14 14 14 14 14 14 14 14 14 14 14 14 14 14 14 14 14 14 13 13 13 13 13 13 13 13 13 13 13
10 11 11 11 11 11 11 11 11 11 11 11 11 11 11 12 12 12 12 12 12 12 12 12 12 12 12 12 12 12 12 12 12 13 13 13 13 13 13 13 13 13 13 13 13 13 13 13 13 3 1 1 1 3 7 8 7 6 8 9 10 11 11 11 11 10 9 8 9 10 10 11 12 12 12 12 11 10 9 8 8 8 8 9 10 11 10 9 9 8 7 6 6 8 9 8 5 2 1 2 4 11 12 12 12 12 12 12 12 13 14 14 14 14 14 14 14 14 14 14 14 14 14 14 14 14 14 14 14 14 14 14 14 14 14 14 13 13 13 13 13 13 13 13 13 13 13 13 13 13
10 11 11 11 11 11 11 11 11 11 11 11 11 11 12 12 12 12 12 12 12 12 12 12 12 12 12 12 12 12 12 12 12 13 13 13 13 13 13 13 13 13 13 13 13 13 13 14 11 2 1 1 1 4 8 9 8 8 9 10 10 9 9 10 10 11 11 11 10 11 11 11 11 11 12 12 11 11 10 10 10 10 11 11 12 11 11 10 10 10 9 9 8 9 9 9 6 2 1 2 5 9 12 12 12 12 12 12 13 13 14 14 14 14 14 14 14 14 14 14 14 14 14 14 14 14 14 14 14 14 14 14 14 14 14 14 13 13 13 13 13 13 13 13 13 13 13 13 13 13
10 11 11 11 11 11 11 11 11 11 11 11 11 11 12 12 12 12 12 12 12 12 12 12 12 12 12 12 12 12 12 12 13 13 13 13 13 13 13 13 13 13 13 13 13 13 13 14 10 2 1 1 1 5 9 9 9 8 8 7 5 6 7 2 3 3 8 9 10 10 11 11 12 12 12 12 12 11 10 10 10 9 9 5 3 3 4 6 5 7 8 9 8 9 9 9 8 2 2 2 2 8 12 12 12 12 12 12 13 13 14 14 14 14 14 14 14 14 14 14 14 14 14 14 14 14 14 14 14 14 14 14 14 14 14 14 13 13 13 13 13 13 13 13 13 13 13 13 13 13
10 11 11 11 11 11 11 11 11 11 11 11 11 11 11 12 12 12 12 12 12 12 12 12 12 12 12 12 12 12 12 12 13 13 13 13 13 13 13 13 13 13 13 13 13 13 13 11 10 7 3 2 1 7 9 10 10 9 7 5 6 11 11 4 3 4 11 10 9 10 10 11 12 13 13 12 11 11 10 10 9 8 12 8 2 2 6 11 6 4 6 7 9 10 10 9 9 3 2 3 2 11 12 12 12 12 12 12 12 13 14 14 14 14 14 14 14 14 14 14 14 14 14 14 14 14 14 14 14 14 14 14 14 14 14 14 13 13 13 13 13 13 13 13 13 13 13 13 13 13
10 11 11 11 11 11 11 11 11 11 11 11 11 11 12 12 12 12 12 12 12 12 12 12 12 12 12 12 12 12 12 12 13 13 13 13 13 13 13 13 13 13 13 13 13 13 13 12 10 11 5 3 3 8 10 11 11 10 9 8 8 8 10 10 9 10 9 9 10 11 10 10 11 13 13 12 11 10 10 11 10 9 10 11 9 9 10 9 8 8 8 9 10 11 10 10 10 5 2 3 5 12 12 12 12 12 12 12 13 13 14 14 14 14 14 14 14 14 14 14 14 14 14 14 14 14 14 14 14 14 14 14 14 14 14 14 13 13 13 13 13 13 13 13 13 13 13 13 13 13
10 11 11 11 11 11 11 11 11 11 11 11 11 11 11 12 12 12 12 12 12 12 12 12 12 12 12 12 12 12 12 12 13 13 13 13 13 13 13 13 13 13 13 13 13 13 13 13 11 11 12 9 6 8 10 11 11 11 11 10 10 9 9 9 10 10 10 11 11 11 11 10 11 13 13 12 11 11 11 11 11 11 10 9 10 9 9 9 9 10 11 11 11 11 11 10 9 6 3 5 10 12 12 12 12 12 12 12 13 13 14 14 14 14 14 14 14 14 14 14 14 14 14 14 14 14 14 14 14 14 14 14 14 13 13 13 13 13 13 13 13 13 13 13 13 13 13 13 13 13
10 11 11 11 11 11 11 11 11 11 11 11 11 11 11 12 12 12 12 12 12 12 12 12 12 12 12 12 12 12 12 12 13 13 13 13 13 13 13 13 13 13 13 13 13 13 13 13 13 11 12 13 8 8 10 11 12 12 12 12 12 11 11 11 11 11 12 12 12 12 11 11 12 13 13 13 12 12 12 11 12 12 12 11 11 11 11 11 12 12 12 12 12 11 11 10 9 6 5 10 12 12 12 12 12 12 12 12 13 13 14 14 14 14 14 14 14 14 14 14 14 14 14 14 14 14 14 14 14 14 13 14 14 13 13 13 13 13 13 13 13 13 13 13 13 13 13 13 13 13
10 11 11 11 11 11 11 11 11 11 11 11 11 11 11 12 12 12 12 12 12 12 12 12 12 12 12 12 12 12 12 12 12 13 13 13 13 13 13 13 13 13 13 13 13 13 13 13 13 13 12 12 10 9 10 11 12 12 12 12 12 12 12 12 12 12 12 12 12 12 11 11 12 13 13 13 12 12 12 12 12 12 12 12 12 12 12 13 13 13 13 12 11 11 10 9 9 5 9 12 12 12 12 12 12 12 12 13 13 14 14 14 14 14 14 14 14 14 14 14 14 14 14 14 14 14 14 14 14 14 13 14 14 13 13 13 13 13 13 13 13 13 13 13 13 13 13 13 13 13
10 11 11 11 11 11 11 11 11 11 11 11 11 11 11 12 12 12 12 12 12 12 12 12 12 12 12 12 12 12 12 12 12 13 13 13 13 13 13 13 13 13 13 13 13 13 13 13 13 13 13 12 12 10 9 10 11 12 12 12 13 13 12 12 13 13 13 13 12 11 11 12 13 13 13 12 11 11 12 12 12 13 13 13 13 13 13 13 13 13 12 12 11 11 10 9 8 9 11 12 12 12 12 12 12 12 13 13 14 14 14 14 14 14 14 14 14 14 14 14 14 14 14 14 14 14 14 14 13 14 14 14 14 13 13 13 13 13 13 13 13 13 13 13 13 13 13 13 13 13
10 11 11 11 11 11 11 11 11 11 11 11 11 11 11 12 12 12 12 12 12 12 12 12 12 12 12 12 12 12 12 12 12 13 13 13 13 13 13 13 13 13 13 13 13 13 13 13 13 13 13 13 13 12 9 10 11 11 12 12 12 13 13 13 13 13 14 13 12 10 11 12 13 13 13 13 12 10 10 12 13 13 13 13 13 13 13 13 13 12 12 11 11 10 10 8 9 12 12 12 12 12 12 12 12 12 13 14 14 14 14 14 14 14 14 14 14 14 14 14 14 14 14 14 14 14 14 14 13 14 14 14 13 13 13 13 13 13 13 13 13 13 13 13 13 13 13 13 13 13
10 11 11 11 11 11 11 11 11 11 11 11 11 11 11 12 12 12 12 12 12 12 12 12 12 12 12 12 12 12 12 12 12 13 13 13 13 13 13 13 13 13 13 13 13 13 13 13 13 13 13 13 13 13 10 9 10 11 11 12 12 12 13 13 13 14 13 12 10 10 11 12 13 14 13 12 12 10 10 10 12 13 13 13 13 13 13 13 12 12 11 10 10 10 9 9 12 12 12 12 12 12 12 12 12 13 13 14 14 14 14 14 14 14 14 14 14 14 14 14 14 14 14 14 14 14 14 14 14 13 14 13 13 13 13 13 13 13 13 13 13 13 13 13 13 13 13 13 13 13
10 11 11 11 11 11 11 11 11 11 11 11 11 11 11 11 12 12 12 12 12 12 12 12 12 12 12 12 12 12 12 12 12 13 13 13 13 13 13 13 13 13 13 13 13 13 13 13 13 13 13 13 13 13 12 9 9 11 11 11 11 12 12 13 13 13 12 11 10 11 10 11 12 13 13 12 10 10 11 10 11 12 13 13 13 13 12 12 12 11 11 10 10 9 9 12 12 12 12 12 12 12 12 12 13 13 14 14 14 14 14 14 14 14 14 14 14 14 14 14 14 14 14 14 14 14 14 13 13 13 13 13 13 13 13 13 13 13 13 13 13 13 13 13 13 13 13 13 13 13
10 11 10 11 11 11 11 11 11 11 11 11 11 11 11 11 12 12 12 12 12 12 12 12 12 12 12 12 12 12 12 12 12 12 13 13 13 13 13 13 13 13 13 13 13 13 13 13 13 13 13 13 13 13 13 10 9 10 11 11 11 12 12 12 13 12 12 12 11 10 9 9 10 10 10 9 7 10 10 9 12 12 12 13 12 12 12 11 11 11 11 10 9 9 11 12 12 12 12 12 12 12 12 13 13 14 14 14 14 14 14 14 14 14 14 14 14 14 14 14 14 14 14 14 14 14 13 13 13 13 13 13 13 13 13 13 13 13 13 13 13 13 13 13 13 13 13 13 13 12
10 11 11 11 11 11 11 11 11 11 11 11 11 11 11 11 12 12 12 12 12 12 12 12 12 12 12 12 12 12 12 12 12 12 13 13 13 13 13 13 13 13 13 13 13 13 13 13 13 13 13 13 13 13 13 12 8 9 10 11 11 11 12 12 12 12 13 12 12 10 10 11 11 10 10 11 10 10 9 11 12 13 12 12 12 12 11 11 11 11 10 10 9 9 12 12 12 12 12 12 12 12 12 13 13 14 14 14 14 14 14 14 14 14 14 14 14 14 14 14 14 14 14 14 14 14 14 13 13 13 13 13 13 13 13 13 13 13 13 13 13 13 13 13 13 13 13 13 13 13
10 10 10 11 11 11 11 11 11 11 11 11 11 11 11 11 12 12 12 12 12 12 12 12 12 12 12 12 12 12 12 12 12 12 13 13 13 13 13 13 13 13 13 13 13 13 13 13 13 13 13 13 13 13 13 13 10 8 9 10 11 11 11 11 12 12 12 12 12 12 11 11 12 12 12 12 11 11 11 12 12 13 12 12 11 11 11 11 11 10 10 9 9 11 12 12 12 12 12 12 12 12 13 13 14 14 14 14 14 14 14 14 14 14 14 14 14 14 14 14 14 14 14 14 14 14 14 13 13 13 13 13 13 13 13 13 13 13 13 13 13 13 13 13 13 13 13 13 13 12
10 11 10 11 11 11 11 11 11 11 11 11 11 11 11 11 12 12 12 12 12 12 12 12 12 12 12 12 12 12 12 12 12 12 13 13 13 13 13 13 13 13 13 13 13 13 13 13 13 13 13 13 13 13 13 13 12 9 9 9 10 10 11 11 11 12 12 12 12 12 12 12 12 12 12 12 12 11 12 12 12 12 12 11 11 11 10 10 10 10 10 9 10 12 12 12 12 12 12 12 12 13 13 14 14 14 14 14 14 14 14 14 14 14 14 14 14 14 14 14 14 14 14 14 14 14 14 13 13 13 13 13 13 13 13 13 13 13 13 13 13 13 13 13 13 13 13 13 13 12
10 11 10 11 11 11 11 11 11 11 11 11 11 11 11 11 12 12 12 12 12 12 12 12 12 12 12 12 12 12 12 12 12 12 12 12 13 13 13 13 13 13 13 13 13 13 13 13 13 13 13 13 13 13 13 12 12 11 9 9 9 10 10 10 11 11 11 11 11 11 11 10 11 11 11 11 10 11 11 11 11 11 11 11 10 10 10 10 10 10 10 10 12 12 12 12 12 12 12 12 12 13 13 14 14 14 14 14 14 14 14 14 14 14 14 14 14 14 14 14 14 14 14 14 13 13 13 13 13 13 13 13 13 13 13 13 13 13 13 13 13 13 13 13 13 13 13 13 13 12
10 11 10 11 11 11 11 11 11 11 11 11 11 11 11 11 11 12 12 12 12 12 12 12 12 12 12 12 12 12 12 12 12 12 12 12 13 13 13 13 13 13 13 13 13 13 13 13 13 13 13 13 13 13 13 12 12 11 5 9 9 9 10 10 10 9 8 8 7 7 7 7 8 8 8 7 8 8 8 8 8 8 9 9 10 10 10 10 10 10 10 12 12 12 12 12 12 12 12 12 13 13 14 14 14 14 14 14 14 14 14 14 14 14 14 14 14 14 14 14 14 14 14 14 13 13 13 13 13 13 13 13 13 13 13 13 13 13 13 13 13 13 13 13 13 13 13 13 13 12
10 11 10 11 11 11 11 11 11 11 11 11 11 11 11 11 11 12 12 12 12 12 12 12 12 12 12 12 12 12 12 12 12 12 12 13 13 13 13 13 13 13 13 13 13 13 13 13 13 13 13 13 13 13 12 12 11 6 1 3 8 9 9 10 10 10 10 9 9 8 8 9 10 10 9 9 9 8 8 8 8 9 10 10 10 10 10 10 10 9 11 12 12 12 12 12 12 12 12 12 13 14 14 14 14 14 14 14 14 14 14 14 14 14 14 14 14 14 14 14 14 14 13 13 13 13 13 13 13 13 13 13 13 13 13 13 13 13 13 13 13 13 13 13 13 13 13 13 13 12
10 10 10 11 10 11 11 11 11 11 11 11 11 11 11 11 11 11 12 12 12 12 12 12 12 12 12 12 12 12 12 12 12 12 12 13 13 13 13 13 13 13 13 13 13 13 13 13 13 13 13 13 12 12 12 11 6 1 1 0 2 7 8 9 10 10 10 10 10 10 9 10 10 11 11 11 10 9 9 9 10 10 10 9 10 9 9 9 8 7 11 12 12 12 12 12 12 12 12 13 14 14 14 14 14 14 14 14 14 14 14 14 14 14 14 14 14 14 14 14 14 13 13 13 13 13 13 13 13 13 13 13 13 13 13 13 13 13 13 13 13 13 13 13 13 13 13 13 13 12
10 10 10 11 10 11 11 11 11 11 11 11 11 11 11 11 11 11 12 12 12 12 12 12 12 12 12 12 12 12 12 12 12 12 12 12 13 13 13 13 13 13 13 13 13 13 13 13 13 13 13 13 12 12 12 8 2 1 1 1 0 0 5 7 8 9 9 9 10 10 10 10 9 9 9 9 9 10 10 10 9 9 9 9 9 9 8 7 8 9 11 12 12 12 12 12 12 12 13 13 14 14 14 14 14 14 14 14 14 14 14 14 14 14 14 14 14 14 14 14 14 13 13 13 13 13 13 13 13 13 13 13 13 13 13 13 13 13 13 13 13 13 13 13 13 13 13 13 13 12
10 10 10 10 11 11 11 11 11 11 11 11 11 11 11 11 11 11 12 12 12 12 12 12 12 12 12 12 12 12 12 12 12 12 12 12 12 13 13 13 13 13 13 13 13 13 13 13 13 13 13 12 12 12 9 3 1 1 1 1 1 0 2 7 7 8 9 10 10 10 10 10 10 10 10 10 10 10 10 10 10 10 9 9 8 7 8 9 9 8 10 13 12 12 12 12 12 13 13 14 14 14 14 14 14 14 14 14 14 14 14 14 14 14 14 14 14 14 14 14 14 14 13 13 13 13 13 13 13 13 13 13 13 13 13 13 13 13 13 13 13 13 13 13 13 13 13 13 13 12
10 10 10 10 11 11 11 11 11 11 11 11 11 11 11 11 11 11 12 12 12 12 12 12 12 12 12 12 12 12 12 12 12 12 12 12 12 13 13 12 13 13 13 13 13 13 13 13 13 13 13 12 12 10 3 1 1 1 1 1 0 0 1 7 8 8 8 10 10 10 10 11 11 10 10 11 11 11 11 11 10 10 9 8 7 9 10 10 9 9 9 10 12 12 12 12 12 13 13 14 14 14 14 14 14 14 14 14 14 14 14 14 14 14 14 14 14 14 14 13 14 14 13 13 13 13 13 13 13 13 13 13 13 13 13 13 13 13 13 13 13 13 13 13 13 13 13 13 13 12
10 10 10 10 11 11 11 11 11 11 11 11 11 11 11 11 11 11 11 12 12 12 12 12 12 12 12 12 12 12 12 12 12 12 12 12 12 12 13 12 13 13 13 13 13 13 13 13 13 13 12 12 11 4 1 1 1 1 1 0 0 0 1 6 8 9 9 8 9 10 11 10 10 10 10 10 11 11 11 10 10 8 7 8 9 10 10 10 9 9 8 8 9 9 10 11 12 13 13 14 14 14 14 14 14 14 14 14 14 14 14 14 14 14 14 14 14 13 13 13 13 13 13 13 13 13 13 13 13 13 13 13 13 13 13 13 13 13 13 13 13 13 13 13 13 13 13 13 13 12
10 10 10 10 11 11 11 11 11 11 11 11 11 11 11 11 11 11 11 12 12 12 12 12 12 12 12 12 12 12 12 12 12 12 12 12 12 12 12 13 13 13 13 13 13 12 13 13 13 13 12 10 4 1 2 1 1 1 1 1 0 0 1 6 8 9 10 10 8 8 9 9 9 10 10 10 10 9 9 8 8 8 9 10 10 10 10 10 10 9 9 8 9 9 9 10 10 11 11 12 13 13 14 14 14 14 14 14 14 14 14 14 14 14 14 14 14 13 13 14 13 13 13 13 13 13 13 13 13 13 13 13 13 13 13 13 13 13 13 13 13 13 13 13 13 13 13 13 13 12
10 10 10 10 11 11 11 11 11 11 11 11 11 11 11 11 11 11 11 11 12 12 12 12 12 12 12 12 12 12 12 12 12 12 12 12 12 12 12 12 13 13 13 12 13 13 13 13 12 11 9 4 1 2 2 2 1 1 1 1 1 1 0 5 9 9 10 10 10 9 9 9 9 9 9 9 9 9 9 9 10 10 10 10 10 11 11 10 10 10 9 9 9 10 10 10 11 11 11 11 11 11 11 11 14 14 14 14 13 13 14 13 13 14 13 13 13 14 13 14 13 13 13 13 13 13 13 13 13 13 13 13 13 13 13 13 13 13 13 13 13 13 13 13 13 13 13 13 13 12
10 10 10 10 11 11 11 11 11 11 11 11 11 11 11 11 11 11 11 12 12 12 12 12 12 12 12 12 12 12 12 12 12 12 12 12 12 12 12 13 13 13 12 12 12 12 11 10 10 9 4 1 2 2 2 1 1 1 1 0 1 1 0 3 9 9 10 10 10 10 10 10 11 11 11 11 11 11 11 11 10 10 10 10 11 11 11 11 10 10 9 9 9 10 10 11 11 11 12 12 12 12 12 10 12 14 15 14 13 15 15 13 14 13 14 13 13 13 13 13 14 14 13 13 13 13 13 13 13 13 13 13 13 13 13 13 13 13 13 13 13 13 13 13 13 13 13 13 13 12
10 10 10 10 10 10 11 11 11 11 11 11 11 11 11 11 11 11 11 11 12 12 12 12 12 12 12 12 12 12 12 12 12 12 12 12 12 12 12 12 12 11 11 11 11 11 11 11 9 3 1 2 2 2 2 1 1 1 1 1 1 1 1 1 6 10 10 11 11 11 10 10 10 11 11 11 11 11 11 11 10 10 10 11 11 11 11 11 10 10 9 9 10 10 11 11 11 12 12 12 12 12 12 12 13 13 15 15 13 15 15 15 14 14 15 15 14 14 14 13 13 13 13 13 13 13 13 13 13 13 13 13 13 13 13 13 13 13 13 13 13 13 13 13 13 13 13 13 13 12
10 10 10 10 10 10 11 11 11 11 11 11 11 11 11 11 11 11 11 11 11 12 12 12 12 12 12 12 12 12 12 12 12 12 12 12 12 11 11 11 11 12 13 13 13 13 12 8 2 1 2 2 3 2 1 1 1 1 1 1 1 1 1 1 2 7 10 11 11 11 11 11 11 11 11 11 11 11 11 11 10 10 11 11 11 11 11 11 10 10 10 10 10 11 11 11 12 12 12 12 12 12 12 13 14 14 14 15 13 14 15 15 15 15 15 14 14 14 15 14 13 13 12 12 12 13 13 13 13 13 13 13 13 13 13 13 13 13 13 13 13 13 13 13 13 13 13 13 13 12
10 10 10 10 10 11 11 11 11 11 11 11 11 11 11 11 11 11 11 11 11 11 12 12 12 12 12 12 12 12 12 12 12 12 12 11 12 13 13 13 14 15 15 15 15 11 6 2 1 2 2 3 3 1 1 1 1 1 1 1 1 1 1 1 1 2 8 10 11 11 11 11 11 11 11 12 12 11 11 11 11 11 11 11 11 11 10 10 10 10 10 11 11 11 11 12 12 12 12 12 12 12 12 14 13 13 15 15 13 14 15 15 15 15 15 15 15 14 15 14 13 14 14 13 12 11 12 12 13 13 13 13 13 13 13 13 13 13 13 13 13 13 13 13 13 13 13 13 13 12
10 10 10 10 10 10 11 11 11 11 11 11 11 11 11 11 11 11 11 11 11 11 11 11 12 12 12 12 12 12 12 12 12 12 12 12 10 11 13 14 14 14 13 12 8 4 1 1 2 1 3 3 2 1 1 1 1 1 1 1 1 1 1 1 2 2 4 9 10 11 11 11 11 11 11 12 12 12 11 11 11 11 11 11 11 11 11 11 11 11 11 11 11 11 12 12 12 12 12 12 12 13 14 15 15 13 15 15 13 13 15 15 15 15 15 15 15 15 15 15 15 14 15 14 14 12 11 11 11 12 13 13 13 13 13 13 13 13 13 13 13 13 13 13 13 13 13 13 13 12
10 10 10 10 10 10 10 11 11 11 11 11 11 11 11 11 11 11 11 11 11 11 11 11 12 12 12 12 12 12 12 12 13 14 14 14 10 2 3 4 5 4 3 1 1 1 1 1 2 2 3 2 2 1 1 1 1 2 1 1 1 1 1 1 2 3 3 5 10 10 11 11 11 11 12 12 12 12 12 12 11 11 11 11 11 11 11 11 12 11 11 11 11 11 11 11 12 12 12 13 14 13 13 14 14 14 14 14 13 13 14 14 14 14 14 14 14 14 14 14 15 15 15 15 14 14 13 11 11 11 11 12 13 13 13 13 13 13 13 13 13 13 13 13 13 13 13 13 13 12
10 10 10 10 10 10 10 11 11 11 11 11 11 11 11 11 11 11 11 11 11 11 11 12 12 12 12 12 12 12 14 14 15 14 14 13 13 11 6 2 1 0 0 0 1 1 1 1 2 3 3 2 1 1 1 2 2 2 2 1 1 2 1 2 2 3 4 4 9 11 11 11 11 11 11 11 12 12 12 11 11 11 12 11 11 11 12 12 12 11 11 11 11 11 11 12 12 13 14 15 15 15 15 15 15 15 15 15 14 14 15 15 15 15 15 15 15 15 15 14 14 13 14 14 15 14 14 12 11 11 11 11 12 13 13 13 13 13 13 13 13 13 13 13 13 13 13 13 13 12
10 10 10 10 10 10 10 11 11 11 11 11 11 11 11 11 11 11 11 11 11 11 11 11 11 11 12 11 13 15 14 14 14 14 14 14 14 13 12 9 4 1 1 1 1 1 1 2 3 3 2 2 2 2 2 2 2 2 2 2 2 2 1 3 3 3 6 7 8 11 11 11 12 12 12 12 12 12 12 12 12 12 12 12 12 12 12 12 11 11 11 12 12 12 12 13 14 15 15 15 15 15 15 15 15 15 15 15 14 13 15 15 15 15 15 15 15 15 15 15 15 15 15 14 13 14 14 14 11 11 11 11 11 12 13 13 13 13 13 13 13 13 13 13 13 13 13 13 13 12
10 10 10 10 10 10 10 10 11 11 11 11 11 11 11 11 11 11 11 11 11 11 11 11 12 11 11 13 13 14 14 15 15 15 15 15 14 12 9 3 1 1 1 1 1 1 2 2 2 2 2 2 2 2 2 2 2 2 2 2 2 1 3 5 3 4 8 9 9 11 11 11 12 12 12 13 13 13 12 13 13 13 13 13 12 12 12 12 12 12 12 12 13 14 15 15 15 15 15 15 15 15 15 15 14 15 15 15 14 13 15 15 15 15 15 14 14 13 13 13 14 15 15 15 14 13 14 13 12 11 11 11 10 11 12 13 13 13 13 13 13 13 13 13 13 13 13 13 13 12
10 10 10 10 10 10 10 10 10 11 11 11 11 11 11 11 11 11 11 11 11 11 11 11 11 11 13 14 13 14 15 15 15 15 15 14 13 14 12 7 5 2 1 1 1 1 2 2 2 3 2 2 2 2 2 2 2 2 2 2 1 5 13 8 8 10 11 11 11 11 11 12 12 12 12 13 13 13 13 13 13 12 12 12 12 12 12 13 13 13 14 14 15 15 15 15 15 15 15 15 15 15 15 15 15 14 15 15 14 13 15 15 15 15 14 13 15 15 13 15 14 13 15 15 14 14 12 12 14 12 10 10 10 10 11 12 13 13 13 13 13 13 13 13 13 13 13 12 13 12
9 10 10 10 10 10 10 11 11 11 11 11 11 11 11 11 11 11 11 11 11 11 11 11 11 12 13 14 14 13 15 15 15 15 14 13 12 14 13 10 5 1 1 1 1 1 2 2 3 3 3 2 2 3 3 3 3 3 3 3 6 14 13 12 15 15 13 15 14 14 13 13 13 12 12 12 12 12 12 13 13 13 13 14 14 14 15 15 13 15 15 14 15 15 15 15 15 15 15 15 15 15 15 15 15 14 15 15 15 13 15 15 14 13 14 15 15 15 14 13 15 14 13 15 14 15 12 12 14 12 11 11 11 10 11 12 13 13 13 13 13 13 13 13 13 13 13 12 13 12
9 10 10 10 10 10 10 10 10 10 10 10 10 10 10 10 10 11 11 11 11 11 11 11 11 13 13 14 15 13 14 14 14 13 14 13 6 5 4 2 2 1 1 1 1 2 2 3 3 3 3 3 3 3 3 3 3 3 3 9 15 14 13 15 15 14 13 15 15 15 15 15 15 14 14 14 14 14 14 14 14 14 15 15 15 15 15 15 12 14 15 14 14 15 15 15 15 15 15 15 15 15 15 15 14 14 15 15 14 12 15 14 13 15 13 13 14 14 14 12 14 15 14 13 14 12 12 12 12 12 11 10 10 10 10 11 12 12 12 12 12 12 12 12 12 12 12 12 12 12
