P2
4 4
1
1 1 1 1
1 1 1 1
1 1 1 1
1 1 1 0
