P2
150 65
15
12 12 12 12 12 12 12 12 12 12 12 12 12 12 12 12 12 12 12 12 12 12 12 12 12 12 13 13 13 12 12 13 13 13 13 13 13 13 13 13 13 13 13 13 13 13 13 13 13 13 13 13 13 13 13 13 13 13 13 13 13 13 13 13 13 13 13 13 13 13 13 13 13 13 13 13 13 13 13 13 13 13 13 13 13 13 13 13 13 13 13 13 13 13 13 13 13 13 13 13 13 13 13 13 13 13 13 12 12 12 12 12 12 12 12 12 12 12 12 12 12 12 12 12 12 12 12 12 12 12 12 12 12 12 12 12 12 11 11 12 11 11 11 11 11 11 11 11 11 11
12 12 12 12 12 12 12 12 12 12 12 12 12 12 12 12 12 12 12 12 12 13 13 12 12 12 13 13 13 13 13 13 13 13 13 13 13 13 13 13 13 13 13 13 13 13 13 13 13 13 13 13 13 13 13 13 13 13 13 13 13 13 13 13 13 13 13 13 13 13 13 13 13 13 13 13 13 13 13 13 13 13 13 13 13 13 13 13 13 13 13 13 13 13 13 13 13 13 13 13 13 13 13 13 13 13 13 13 13 13 13 13 12 12 12 12 12 12 12 12 12 12 12 12 12 12 12 12 12 12 12 12 12 12 12 12 12 12 12 12 12 11 11 11 11 11 11 11 11 11
12 12 12 12 12 12 12 12 12 12 12 12 12 12 12 12 12 12 13 13 13 13 13 13 13 13 13 13 13 13 13 13 13 13 13 13 13 13 13 13 13 13 13 13 13 13 13 13 13 13 13 13 13 13 13 13 13 13 13 13 13 13 13 13 13 13 13 13 13 13 13 13 13 13 13 13 13 13 13 13 13 13 13 13 13 13 13 13 13 13 13 13 13 13 13 13 13 13 13 13 13 13 13 13 13 13 13 13 13 13 13 13 13 13 12 12 12 12 12 12 12 12 12 12 12 12 12 12 12 12 12 12 12 12 12 12 12 12 12 12 12 12 11 11 11 11 11 11 11 11
12 12 12 12 12 12 12 12 12 12 12 12 12 12 12 12 12 13 13 13 13 13 13 13 13 13 13 13 13 13 13 13 13 13 13 13 13 13 13 13 13 13 13 13 13 13 13 13 13 13 13 13 13 13 13 13 13 13 13 13 13 13 13 13 13 13 13 13 13 13 13 13 13 13 13 13 13 13 13 13 13 13 13 13 13 13 13 13 13 13 13 13 13 13 13 13 13 13 13 13 13 13 13 13 13 13 13 13 13 13 13 13 13 13 13 13 13 13 12 12 12 12 12 12 12 12 12 12 12 12 12 12 12 12 12 12 12 12 12 12 12 12 12 12 11 11 11 11 11 11
12 12 12 12 12 12 12 12 12 12 12 12 13 13 13 13 13 13 13 13 13 13 13 13 13 13 13 13 13 13 13 13 13 13 13 13 13 13 13 13 13 13 13 13 13 13 13 13 13 13 13 13 13 13 13 13 13 13 13 13 13 13 13 13 13 13 13 13 13 13 13 13 13 13 13 13 13 13 13 13 13 13 13 13 13 13 13 13 13 13 13 13 13 13 13 13 13 13 13 13 13 13 13 13 13 13 13 13 13 13 13 13 13 13 13 13 13 13 12 12 12 12 12 12 12 12 12 12 12 12 12 12 12 12 12 12 12 12 12 12 12 12 12 12 12 11 11 11 11 12
12 12 12 12 12 12 12 12 12 13 13 13 13 13 13 13 13 13 13 13 13 13 13 13 13 13 13 13 13 13 13 13 13 13 13 13 13 13 13 13 13 13 13 13 13 13 13 13 13 13 13 13 13 13 13 13 13 13 13 13 13 13 13 13 13 13 13 13 13 13 13 13 13 13 13 13 13 13 13 13 13 13 13 13 13 13 13 13 13 13 13 13 13 13 13 13 13 13 13 13 13 13 13 13 13 13 13 13 13 13 13 13 13 13 13 13 13 13 13 13 13 13 12 12 12 12 12 12 12 12 12 12 12 12 12 12 12 12 12 12 12 12 12 12 12 12 12 12 11 12
12 12 12 12 13 12 12 12 13 13 13 13 13 13 13 13 13 13 13 13 13 13 13 13 13 13 13 13 13 13 13 13 13 13 13 13 13 13 13 13 13 13 13 13 13 13 13 13 13 13 13 13 13 13 13 13 13 13 13 13 13 13 13 13 13 13 13 13 13 13 13 13 13 13 13 13 13 14 14 14 14 14 14 13 13 13 13 13 13 13 13 13 13 13 13 13 13 13 13 13 13 13 13 13 13 13 13 13 13 13 13 13 13 13 13 13 13 13 13 13 13 13 13 13 13 13 12 12 13 12 12 12 12 12 12 12 12 12 12 12 12 12 12 12 12 12 12 12 12 12
13 12 12 12 12 13 13 13 13 13 13 13 13 13 13 13 13 13 13 13 13 13 13 13 13 13 13 13 13 13 13 13 13 13 13 13 13 13 13 13 13 13 13 13 13 13 13 13 13 13 13 13 13 13 13 13 13 13 13 13 13 13 13 13 13 13 13 14 14 14 13 13 13 13 13 14 14 14 14 14 14 14 14 13 13 13 14 14 13 13 13 13 13 13 13 13 13 13 13 13 13 13 13 13 13 13 13 13 13 13 13 13 13 13 13 13 13 13 13 13 13 13 13 13 13 13 13 13 12 12 12 12 12 12 12 12 12 12 12 12 12 12 12 12 12 12 12 12 12 12
13 12 13 13 12 13 13 13 13 13 13 13 13 13 13 13 13 13 13 13 13 13 13 13 13 13 13 13 13 13 13 13 13 13 13 13 13 13 13 13 13 13 14 14 14 13 13 13 14 14 13 13 13 13 13 13 13 13 13 13 13 13 13 13 13 14 14 14 14 14 14 14 14 14 14 14 14 14 14 14 14 14 14 13 13 14 14 14 14 13 13 13 13 13 13 13 13 13 13 13 13 13 13 13 13 13 13 13 13 13 13 13 13 13 13 13 13 13 13 13 13 13 13 13 13 13 13 13 13 13 13 13 12 12 12 12 12 12 12 12 12 12 12 12 12 12 12 12 12 12
13 12 13 13 13 13 13 13 13 13 13 13 13 13 13 13 13 13 13 13 13 13 13 13 13 13 13 13 13 13 13 13 13 13 13 13 13 13 14 14 14 13 14 14 14 13 13 14 14 14 14 13 14 14 14 14 14 14 14 14 14 14 14 14 14 14 14 14 14 14 14 14 14 14 14 14 14 14 14 14 14 14 14 14 14 14 14 14 14 14 14 14 14 14 14 14 14 14 14 14 14 13 13 13 13 13 13 13 13 13 13 13 13 13 13 13 13 13 13 13 13 13 13 13 13 13 13 13 13 13 13 13 12 13 13 12 12 12 12 12 12 12 12 12 12 12 12 12 12 12
13 12 13 13 13 13 13 13 13 13 13 13 13 13 13 13 13 13 13 13 13 13 13 13 13 13 13 13 13 13 13 13 13 13 13 14 14 14 14 14 14 14 14 14 14 14 14 14 14 14 14 14 14 14 14 14 14 14 14 14 14 14 14 14 14 14 14 14 14 14 14 14 14 14 14 14 14 14 14 14 14 14 14 14 14 14 14 14 14 14 14 14 14 14 14 14 14 14 13 14 13 14 13 13 13 13 13 13 13 13 13 13 13 13 13 13 13 13 13 13 13 13 13 13 13 13 13 13 12 12 12 12 12 12 12 12 12 12 12 12 12 12 12 12 12 12 12 12 12 12
13 13 13 13 13 13 13 13 13 13 13 13 13 13 13 13 13 13 13 13 13 13 13 13 13 13 13 13 13 13 13 13 13 14 14 14 14 14 14 14 14 14 14 14 14 14 14 14 14 14 14 14 14 14 14 14 14 14 14 14 14 14 14 14 14 14 14 14 14 14 14 14 14 14 14 14 14 14 14 14 14 14 14 14 14 14 14 14 14 14 14 14 14 14 14 13 13 14 14 13 14 12 13 14 14 13 13 13 13 13 13 13 13 13 13 13 13 13 13 13 13 13 13 13 13 13 13 13 13 13 13 13 13 13 12 12 12 12 12 12 12 12 12 12 12 12 12 12 12 12
13 13 13 13 13 13 13 13 13 13 13 13 13 13 13 13 13 13 13 13 13 13 13 13 13 13 13 13 13 13 13 13 14 14 14 14 14 14 14 14 14 14 14 14 14 14 14 14 14 14 14 14 14 14 14 14 14 14 14 14 14 14 14 14 14 14 14 14 14 14 14 14 14 14 14 14 14 14 14 14 14 14 14 14 14 14 14 14 14 14 14 14 14 14 14 13 14 14 14 15 14 10 14 15 15 15 14 14 14 13 13 13 13 13 13 13 13 13 13 13 13 13 13 13 13 13 13 13 13 13 13 13 13 13 13 13 13 12 12 12 12 12 12 12 12 12 12 12 12 12
13 13 13 13 13 13 13 13 13 13 13 13 13 13 13 13 13 13 13 13 13 13 13 13 13 13 13 13 13 13 13 13 14 14 14 14 14 14 14 14 14 14 14 14 14 14 14 14 14 14 14 14 14 14 14 14 14 14 14 14 14 14 14 14 14 14 14 14 14 14 14 14 14 14 14 14 14 14 14 14 14 14 14 14 14 14 14 14 14 14 14 14 14 14 14 14 14 14 13 9 10 15 15 15 15 15 15 15 15 15 14 14 13 13 14 13 13 13 13 13 13 13 13 13 13 13 13 13 13 13 13 13 13 13 13 13 13 13 13 12 12 12 12 12 12 12 12 12 12 12
13 13 13 13 13 13 13 13 13 13 13 13 13 13 13 13 13 13 13 13 13 13 13 13 13 13 13 14 14 14 14 14 14 14 14 14 14 14 14 14 14 14 14 14 14 14 14 14 14 14 14 14 14 14 14 14 14 14 14 14 14 14 14 14 14 14 14 14 14 14 14 14 14 14 14 14 14 14 14 14 14 14 14 14 14 14 14 14 14 14 14 14 14 14 14 14 10 6 5 2 1 4 12 14 14 14 14 13 12 14 15 14 14 13 14 13 13 13 13 13 13 13 13 13 13 13 13 13 13 13 13 13 13 13 13 13 13 13 13 13 13 12 12 12 12 12 12 12 12 12
13 13 13 13 13 13 13 13 13 13 13 13 13 13 13 13 13 13 13 13 13 13 13 13 13 14 14 14 14 14 14 14 14 14 14 14 14 14 14 14 14 14 14 14 14 14 14 14 14 14 14 14 14 14 14 14 14 14 14 14 14 14 14 14 14 14 14 14 14 14 14 14 14 14 14 14 14 14 14 14 14 14 14 14 14 14 14 14 14 14 14 14 14 15 14 6 3 2 1 1 1 0 2 9 12 12 14 8 6 8 14 14 13 14 13 14 13 13 13 13 13 13 13 13 13 13 13 13 13 13 13 13 13 13 13 13 13 13 13 13 13 13 12 12 12 12 12 12 12 12
13 13 13 13 13 13 13 13 13 13 13 13 13 13 13 13 13 13 13 13 13 13 14 14 14 14 14 14 14 14 14 14 14 14 14 14 14 14 14 14 14 14 14 14 14 14 14 14 14 14 14 14 14 14 14 14 14 14 14 14 14 14 14 14 14 14 14 14 14 14 14 14 14 14 14 14 14 14 14 14 14 14 14 14 14 14 14 14 14 14 14 15 11 4 4 2 3 2 1 0 0 2 1 2 9 11 13 11 7 7 12 15 13 14 14 13 13 13 13 13 13 13 13 13 13 13 13 13 13 13 13 13 13 13 13 13 13 13 13 13 13 12 12 12 12 12 12 12 12 12
13 13 13 13 13 13 13 13 13 13 13 13 13 13 13 13 13 13 13 13 14 14 14 14 14 14 14 14 14 14 14 14 14 14 14 14 14 14 14 14 14 14 14 14 14 14 14 14 14 14 14 14 14 14 14 14 14 14 14 14 14 14 14 14 14 14 14 14 14 14 14 14 14 14 14 14 14 14 14 14 14 14 14 14 14 14 14 14 14 14 14 15 9 0 1 3 2 1 1 1 1 3 3 1 2 12 12 8 8 9 12 14 13 14 13 13 13 13 13 13 13 13 13 13 13 13 13 13 13 13 13 13 13 13 13 13 13 13 13 13 13 12 12 12 12 12 12 12 12 12
13 13 13 13 13 13 13 13 13 13 13 13 13 13 13 13 13 13 13 13 14 14 14 14 14 14 14 14 14 14 14 14 14 14 14 14 14 14 14 14 14 14 14 14 14 14 14 14 14 14 14 14 14 14 14 14 14 14 14 14 14 14 14 14 14 14 14 14 14 14 14 14 14 14 14 14 14 14 14 14 14 14 14 14 14 14 14 14 14 14 14 14 13 10 10 7 3 5 2 2 1 0 1 2 3 13 14 13 14 14 14 14 14 14 14 14 14 14 13 13 13 13 13 13 13 13 13 13 13 13 13 13 13 13 13 13 13 13 13 13 13 12 12 12 12 13 12 12 12 12
13 13 13 13 13 13 13 13 13 13 13 13 13 13 13 13 13 13 13 14 14 14 13 14 14 14 14 14 14 14 14 14 14 14 14 14 14 14 14 14 14 14 14 14 14 14 14 14 14 14 14 14 14 14 14 14 14 14 14 14 14 14 14 14 14 14 14 14 14 14 14 14 14 14 14 14 14 14 14 14 14 14 14 14 14 14 14 14 14 14 14 14 15 15 15 14 3 2 3 1 1 1 1 8 14 15 14 15 14 14 14 14 14 14 14 14 14 14 14 14 13 13 13 13 13 13 13 13 13 13 13 13 13 13 13 13 13 13 13 13 13 12 12 12 12 13 12 12 12 12
13 13 13 13 13 13 13 13 13 13 13 13 13 13 13 13 13 14 13 13 13 13 13 13 14 14 14 14 14 14 14 14 14 14 14 14 14 14 14 14 14 14 14 14 14 14 14 14 14 14 14 14 14 14 14 14 14 14 14 14 14 14 14 14 14 14 14 14 14 14 14 14 14 14 14 14 14 14 14 14 14 14 14 14 14 14 14 14 14 14 14 14 14 14 13 15 8 0 1 1 0 1 1 6 14 14 14 14 14 14 14 14 14 14 14 14 14 14 14 14 14 14 13 13 13 13 13 13 13 13 13 13 13 13 13 13 13 13 13 13 13 13 13 13 13 13 13 12 12 13
13 13 13 13 13 13 13 13 13 13 13 13 13 13 13 13 14 13 14 14 14 14 14 14 14 13 14 14 14 14 14 14 14 14 14 14 14 14 14 14 14 14 14 14 14 14 14 14 14 14 14 14 14 14 14 14 14 14 14 14 14 14 14 14 14 14 14 14 14 14 14 14 14 14 14 14 14 14 14 14 14 14 14 14 14 14 14 14 14 14 14 14 14 14 14 14 13 2 0 1 1 1 2 5 9 13 14 13 14 14 14 14 14 14 14 14 14 14 14 14 14 14 13 13 13 13 13 13 13 13 13 13 13 13 13 13 13 13 13 13 13 13 13 13 13 13 13 12 12 13
14 13 13 13 13 13 13 13 13 13 13 14 13 13 13 13 14 13 14 14 13 12 12 13 14 14 13 14 13 13 14 13 14 14 14 14 14 14 14 14 14 14 14 14 14 14 14 14 14 14 14 14 14 14 14 14 14 14 14 14 14 14 14 14 14 14 14 14 14 14 14 14 14 14 14 14 14 14 14 14 14 14 14 14 14 14 14 14 14 14 14 14 14 14 14 14 15 7 5 5 2 2 4 10 13 15 14 14 14 14 14 14 14 14 14 14 14 14 14 13 13 13 14 13 13 13 13 13 13 13 13 13 13 13 13 13 13 13 13 13 13 13 13 13 13 13 13 12 12 13
14 13 14 13 14 14 14 14 13 14 14 13 13 14 14 13 13 13 13 14 7 4 4 3 7 14 14 14 14 14 14 14 14 14 14 14 14 14 14 14 14 14 14 14 14 14 14 14 14 14 14 14 14 14 14 14 14 14 14 14 14 14 14 14 14 14 14 14 14 14 14 14 14 14 14 14 14 14 14 14 14 14 14 14 14 14 14 14 14 14 14 14 14 14 14 14 14 14 5 3 4 3 9 13 15 15 15 14 12 11 14 14 14 14 14 14 14 14 14 14 14 14 14 14 14 13 13 13 13 13 13 13 13 13 13 13 13 13 13 13 13 13 13 13 13 13 13 13 12 13
14 13 13 13 12 12 11 13 13 13 14 14 15 14 14 14 14 15 14 14 6 3 7 1 0 11 13 10 10 10 10 11 11 12 13 13 13 13 14 14 14 14 14 14 15 15 15 15 15 15 14 14 14 14 14 14 14 14 14 14 14 14 14 14 14 14 14 14 14 14 14 14 14 14 14 14 14 14 14 14 14 14 14 14 14 14 14 14 14 14 14 14 14 14 14 14 14 15 6 1 4 3 4 12 13 15 14 14 15 12 12 14 14 13 14 14 14 14 14 14 14 14 14 14 14 14 14 13 13 13 13 13 13 13 13 13 13 13 13 13 13 13 13 13 13 13 13 13 13 13
13 13 13 12 10 7 7 6 6 6 7 6 7 8 9 9 8 9 10 11 4 0 5 6 5 3 4 4 4 4 4 4 5 5 5 5 5 5 6 6 6 7 7 7 8 8 8 9 10 11 13 14 15 15 15 15 14 14 14 14 14 15 15 15 15 15 15 15 15 15 15 15 15 15 15 15 14 14 14 14 14 14 14 14 14 14 14 14 14 14 14 14 14 14 14 14 14 15 13 2 4 2 1 6 12 13 14 15 15 15 14 15 13 14 14 14 14 14 14 13 14 14 14 14 14 13 14 14 14 14 14 13 13 13 13 13 13 13 13 13 13 13 13 13 13 13 13 13 13 13
13 13 13 14 12 13 14 13 12 10 10 12 9 5 5 7 10 8 7 10 5 0 4 10 7 2 2 2 2 2 3 3 3 4 4 5 5 5 5 5 5 5 5 5 5 5 5 5 5 4 5 6 9 10 11 12 12 12 13 12 12 12 11 11 10 10 9 9 9 9 9 10 10 10 10 11 13 14 14 14 14 14 14 14 14 14 14 14 14 14 14 14 14 14 14 14 14 14 15 8 5 2 1 0 6 13 14 14 15 15 14 15 14 14 14 14 14 14 14 14 14 14 14 14 14 14 14 14 14 14 14 14 13 13 13 13 13 13 13 13 13 13 13 13 13 13 13 13 13 13
13 13 13 13 13 13 13 14 13 13 11 14 14 11 4 5 11 10 9 9 5 0 2 10 6 2 2 2 2 2 1 1 1 1 2 2 2 3 3 3 3 3 3 3 3 3 4 4 5 5 5 5 4 4 4 5 5 5 5 5 4 4 4 4 4 4 4 4 4 4 4 4 5 5 5 3 3 13 14 14 14 14 14 14 14 14 14 14 14 14 14 14 14 14 14 14 14 14 14 11 6 3 1 1 1 5 13 14 14 15 15 15 15 15 14 14 14 14 14 14 14 14 14 14 14 14 14 14 14 14 14 14 13 13 13 13 13 13 13 13 13 13 13 13 13 13 13 13 13 13
13 13 13 13 13 13 13 14 14 14 13 11 12 14 11 7 8 1 1 2 3 1 1 7 3 1 1 2 2 2 2 2 1 2 2 2 2 2 1 1 1 1 1 1 1 1 1 1 1 1 2 4 4 3 3 4 4 4 4 4 4 4 5 5 5 5 4 4 4 5 4 4 4 3 3 2 5 15 14 14 14 14 14 14 14 14 14 14 14 14 14 14 14 14 14 14 14 14 15 11 7 4 2 1 1 1 5 13 14 14 15 15 15 15 15 15 14 14 13 14 14 14 14 14 14 14 14 14 14 14 14 14 13 13 13 13 13 13 13 13 13 13 13 13 13 13 13 13 13 13
14 13 13 13 13 13 13 13 14 13 14 14 12 11 14 13 6 1 1 2 8 2 0 4 6 5 1 3 1 0 0 0 0 0 0 1 1 0 1 0 0 0 0 0 0 0 0 0 0 0 0 0 0 0 0 0 0 0 1 1 0 1 1 1 2 2 1 1 2 2 2 1 2 2 1 1 7 15 14 14 14 14 14 14 14 14 14 14 14 14 14 14 14 14 14 14 14 13 15 12 9 6 3 1 1 1 1 5 13 14 14 14 14 15 15 15 15 14 14 14 14 14 14 14 14 14 14 14 14 14 13 13 13 13 13 13 13 13 13 13 13 13 13 13 13 13 13 13 13 13
14 13 13 13 13 13 13 13 13 13 13 14 14 14 10 12 8 4 3 5 11 9 3 1 3 3 3 5 4 4 4 3 2 1 0 0 0 0 0 1 0 0 0 0 0 0 0 0 0 0 0 0 0 0 0 0 0 0 0 0 0 0 0 0 1 1 1 1 1 0 0 1 1 1 1 1 10 15 14 14 14 14 14 14 14 14 14 14 14 14 14 14 14 14 14 14 14 14 14 14 13 7 4 2 1 0 1 0 5 13 14 13 14 15 15 15 14 15 15 14 14 14 14 14 14 14 14 14 14 14 13 13 13 13 13 13 13 13 13 13 13 13 13 13 13 13 13 13 13 13
14 13 13 13 13 13 13 13 13 14 14 14 14 13 13 11 10 12 10 10 10 11 10 5 4 5 4 2 2 2 2 2 2 3 3 2 1 0 1 1 1 0 0 0 0 0 0 0 0 0 0 0 0 0 0 0 0 0 0 0 0 0 0 0 0 0 1 0 0 1 0 1 1 0 1 5 12 15 14 14 14 14 14 14 14 14 14 14 14 14 14 14 14 14 14 14 14 14 14 14 14 10 6 4 1 2 4 3 0 5 13 13 13 14 14 15 15 15 15 15 14 14 13 14 14 14 14 14 14 14 13 13 13 13 13 13 13 13 13 13 13 13 13 13 13 13 13 13 13 13
14 13 13 13 13 13 13 14 13 14 14 14 13 13 12 12 11 11 11 9 10 9 6 11 15 14 13 12 11 10 8 7 5 3 2 3 2 3 1 0 1 1 1 1 1 0 0 0 0 0 0 0 0 0 0 0 0 0 0 0 0 0 0 0 1 0 1 1 1 1 1 1 1 6 12 15 15 14 14 14 14 14 14 14 14 14 14 14 14 14 14 14 14 14 14 14 14 14 14 14 14 12 7 5 2 1 3 2 3 0 6 14 13 13 14 14 15 14 15 15 14 14 14 14 13 14 14 14 14 14 14 13 13 13 13 13 13 13 13 13 13 13 13 13 13 13 13 13 13 13
14 13 13 13 14 13 13 14 14 13 14 14 14 14 13 14 11 6 8 9 7 8 13 14 13 12 12 11 11 10 10 11 11 11 10 7 1 3 4 2 1 0 0 0 1 1 1 1 1 1 1 0 0 1 0 0 1 0 0 0 0 0 0 0 0 0 0 0 0 1 0 1 8 15 15 14 14 14 14 14 14 14 14 14 14 14 14 14 14 14 14 14 14 14 14 14 14 14 14 14 14 15 9 7 3 1 2 3 3 3 0 7 13 12 13 13 14 14 15 15 15 15 15 14 14 14 14 14 14 14 14 14 13 13 13 13 13 13 13 13 13 13 13 13 13 13 13 13 13 13
14 13 13 13 14 13 13 14 14 13 14 13 14 13 14 14 7 5 9 12 12 14 13 12 13 14 14 14 13 11 10 9 8 8 7 7 7 8 13 14 13 11 8 6 3 2 0 0 0 0 0 0 0 0 0 0 0 0 0 0 0 0 0 0 0 0 0 0 0 1 2 8 14 14 14 14 14 14 14 14 14 14 14 14 14 14 14 14 14 14 14 14 14 14 14 14 14 14 14 14 14 14 13 7 5 4 1 1 3 4 1 1 8 12 13 13 13 14 15 15 15 15 15 15 14 14 14 14 14 14 14 13 13 13 13 13 13 13 13 13 13 13 13 13 13 13 13 13 13 13
14 13 13 13 14 13 14 14 13 13 14 14 14 14 14 14 13 14 14 14 13 14 14 14 15 14 14 14 14 13 13 13 13 13 13 12 13 12 12 12 12 13 13 14 14 13 12 9 7 5 2 1 0 0 0 0 0 0 0 0 0 0 0 0 0 1 0 0 1 1 7 14 14 14 14 14 14 14 14 14 14 14 14 14 14 14 14 14 14 14 14 14 14 14 14 14 14 14 14 14 14 14 14 10 6 4 2 2 2 1 1 1 1 4 7 11 13 14 13 14 15 15 14 15 15 14 14 14 14 14 14 14 13 13 13 13 13 13 13 13 13 13 13 13 13 13 13 13 13 13
14 13 14 13 14 13 14 14 13 14 13 13 14 14 14 14 14 15 15 15 15 15 15 15 15 14 15 14 14 13 14 13 13 13 13 13 14 14 14 14 13 13 12 11 12 12 12 14 14 14 14 13 11 8 5 3 1 0 0 0 0 0 1 0 1 1 1 1 2 2 9 15 14 14 14 14 14 14 14 14 14 14 14 14 14 14 14 14 14 14 14 14 14 14 14 14 14 14 14 14 14 14 15 13 7 4 2 3 2 2 1 1 0 0 1 2 6 13 13 13 14 15 15 14 13 14 14 13 14 14 14 13 13 13 13 13 13 13 13 13 13 13 13 13 13 13 13 13 13 13
14 13 14 13 14 14 14 14 14 13 14 14 13 14 14 11 10 11 11 13 14 14 15 15 15 15 15 15 15 15 15 14 14 14 13 13 13 13 13 13 13 13 13 14 14 13 13 12 11 11 11 12 13 14 14 14 13 11 8 5 3 1 0 0 1 1 1 2 2 2 7 14 14 14 15 14 14 14 14 14 14 14 14 14 14 14 14 14 14 14 14 14 14 14 14 14 14 14 14 14 14 14 14 15 9 5 2 1 2 2 2 2 2 1 1 1 0 6 14 13 14 15 13 12 12 14 15 14 14 14 14 14 14 14 13 13 13 13 13 13 13 13 13 13 13 13 13 13 13 13
14 13 14 13 14 14 14 14 14 13 14 14 14 14 12 8 4 3 4 6 7 13 13 12 12 13 13 14 14 15 15 15 15 15 15 15 15 14 14 14 14 13 13 13 13 13 13 13 13 13 13 12 11 11 11 11 12 13 14 15 15 13 10 6 1 1 1 2 2 2 2 9 15 14 14 14 14 14 14 14 14 14 14 14 14 14 14 14 14 14 14 14 14 14 14 14 14 14 14 14 14 14 14 15 13 7 3 1 1 1 1 2 2 2 2 2 1 6 14 14 15 13 11 12 14 14 14 14 14 15 15 15 14 14 14 13 13 13 13 13 13 13 13 13 13 13 13 13 13 13
14 13 14 13 14 14 14 14 13 14 14 13 14 13 9 5 4 4 4 5 5 8 15 13 10 13 10 13 10 13 13 13 13 14 14 14 14 15 15 15 15 15 15 14 14 14 14 13 13 13 13 13 13 13 13 13 12 11 11 11 11 14 15 14 10 1 1 2 3 3 1 4 12 15 14 14 14 14 14 14 14 14 14 14 14 14 14 14 14 14 14 14 14 14 14 14 14 14 14 14 14 14 14 15 9 2 2 1 1 1 0 0 1 1 1 1 3 13 15 14 13 10 12 12 13 14 14 14 14 14 14 14 14 14 15 15 14 14 14 13 13 13 13 13 13 13 13 13 13 13
14 13 13 14 13 14 14 14 13 14 14 14 14 11 8 4 4 4 5 6 7 5 12 13 11 11 12 11 12 10 13 13 14 13 13 14 13 14 13 14 14 14 14 15 15 15 15 15 14 14 13 13 13 13 13 13 13 12 13 13 11 9 13 13 12 10 1 0 2 3 3 1 6 13 14 14 14 14 14 14 14 14 14 14 14 14 14 14 14 14 14 14 14 14 14 14 14 14 14 14 14 14 14 14 4 1 1 1 1 0 0 0 0 1 1 3 13 14 14 15 12 11 13 13 14 14 13 14 14 14 14 14 14 14 14 14 15 15 15 15 14 13 13 13 13 13 13 13 13 13
14 13 13 13 13 14 13 14 14 14 14 12 8 6 5 3 4 5 5 6 6 5 9 14 13 13 13 11 13 10 12 8 7 8 10 10 11 12 12 13 13 13 13 13 13 13 13 13 14 14 14 14 14 14 14 13 13 13 13 12 12 12 9 14 13 14 11 1 1 2 4 2 2 8 14 14 14 14 14 14 14 14 14 14 14 14 14 14 14 14 14 14 14 14 14 14 14 14 14 14 14 13 15 9 2 2 1 1 1 1 0 1 1 1 4 13 14 14 12 13 14 7 9 11 12 13 13 14 14 15 15 15 15 15 15 14 14 14 14 15 14 14 13 12 13 12 13 12 13 13
14 13 13 13 13 14 14 14 14 14 14 11 6 3 2 1 1 2 1 1 2 2 4 8 9 10 11 13 13 14 13 13 11 11 10 9 11 10 8 8 9 12 13 13 12 13 13 13 13 13 12 11 11 12 12 12 13 13 13 13 12 12 12 9 14 13 13 10 2 1 3 4 1 3 10 15 15 14 14 14 14 14 14 14 14 14 14 14 14 14 14 14 14 14 14 14 14 14 14 14 14 14 13 3 1 1 1 1 0 1 1 1 1 6 14 15 14 12 9 11 13 8 0 0 1 1 2 3 4 5 6 8 9 10 11 13 13 14 15 15 15 15 15 14 13 13 13 13 13 13
14 13 13 13 13 14 14 14 14 14 14 14 14 12 11 10 7 4 5 4 2 2 1 0 0 0 0 1 2 3 5 7 8 9 11 12 12 13 13 13 13 14 14 13 13 13 12 13 13 11 9 10 9 10 10 10 10 10 11 11 11 11 12 10 11 14 13 13 10 1 1 4 3 1 4 12 14 14 14 14 14 14 14 14 14 14 14 14 14 14 14 14 14 14 14 14 14 14 14 14 14 15 7 1 2 1 1 1 0 1 2 1 8 14 15 14 10 8 9 10 12 15 9 5 5 6 6 5 4 4 3 3 3 2 2 3 2 4 5 6 6 7 10 11 10 13 13 13 13 13
14 13 13 13 13 14 14 14 14 14 14 14 13 14 15 15 13 7 12 14 12 12 10 9 7 6 5 3 2 1 1 0 0 0 0 0 1 2 3 4 5 7 8 9 11 11 12 13 9 7 8 10 10 11 11 11 11 11 10 10 10 10 10 10 10 10 12 14 15 10 1 2 3 2 1 6 14 14 14 14 14 14 14 14 14 14 14 14 14 14 14 14 14 14 14 14 14 14 14 14 15 12 3 1 1 1 0 0 1 1 2 10 15 14 13 8 7 8 10 11 10 7 4 3 4 3 4 5 5 6 6 6 6 6 7 7 6 3 1 1 3 3 1 2 4 10 14 13 13 13
14 13 13 13 13 14 14 14 14 14 14 13 14 13 14 12 8 10 11 14 15 15 15 15 14 14 14 13 12 11 10 9 8 7 6 4 3 2 2 1 0 0 0 0 0 1 2 3 2 3 3 3 5 6 7 8 9 9 9 10 10 10 11 10 11 11 9 12 13 15 10 1 2 4 1 2 8 14 14 14 14 14 14 14 14 14 14 14 14 14 14 14 14 14 14 14 14 14 14 14 15 7 1 1 1 1 0 1 1 4 12 15 14 11 7 6 7 10 6 5 1 3 4 0 0 0 0 0 0 0 0 0 0 0 1 0 1 1 0 1 5 10 13 11 12 13 13 13 13 13
14 13 13 13 13 14 14 14 14 14 14 14 13 14 13 3 1 0 8 14 6 6 8 9 10 12 13 13 14 15 15 14 14 13 13 12 12 11 10 9 9 8 7 5 5 4 1 1 2 1 1 0 0 0 0 0 0 1 1 2 3 4 5 6 7 8 8 9 9 12 15 9 1 2 2 1 3 11 15 14 14 14 14 14 14 14 14 14 14 14 14 14 14 14 14 14 14 14 14 15 11 1 1 1 1 1 1 1 7 14 14 14 11 7 7 8 9 4 0 1 1 1 5 4 1 2 4 5 5 5 5 5 3 2 1 0 0 1 0 1 1 3 10 14 13 13 13 12 13 13
14 13 13 14 13 13 13 14 14 14 14 14 13 15 7 1 1 6 15 13 10 5 0 1 1 2 3 6 7 8 10 12 13 14 14 13 13 13 12 11 11 11 10 11 10 11 9 2 0 2 1 1 1 0 0 0 0 0 0 0 0 0 0 0 0 0 0 1 1 1 4 5 2 0 2 1 0 4 12 13 14 14 15 14 15 15 15 15 14 15 15 14 15 14 14 15 14 15 13 7 4 1 1 1 1 1 3 10 15 13 14 9 6 7 9 9 3 0 0 0 1 1 0 6 5 7 7 8 8 10 11 10 9 8 7 5 2 1 0 1 2 4 4 8 14 13 14 13 13 13
14 13 13 14 14 14 14 14 14 14 14 13 15 10 2 0 6 14 14 15 11 1 1 0 0 1 0 2 1 0 1 1 2 4 6 8 9 11 12 13 13 13 13 12 12 11 13 10 2 0 1 1 0 0 0 0 0 0 0 0 0 0 0 0 0 0 0 0 0 0 0 1 1 1 1 2 0 1 6 6 5 6 7 7 8 9 10 10 11 11 11 12 12 12 13 13 12 12 8 1 1 1 1 1 1 6 13 15 13 12 7 7 8 10 9 3 0 1 0 0 0 1 1 1 5 6 4 1 3 6 12 15 14 12 10 9 8 5 2 0 1 1 3 3 11 14 13 13 13 13
14 13 13 14 14 14 14 14 14 14 14 14 12 3 1 4 14 14 14 12 2 0 0 0 1 1 3 4 2 1 2 1 1 0 0 0 0 1 2 3 4 6 8 10 12 12 13 14 11 5 5 4 4 3 2 3 3 3 2 2 2 1 1 0 0 0 0 0 0 0 0 0 1 1 0 2 1 1 3 7 6 6 5 5 5 5 4 4 5 5 5 5 5 5 5 6 5 6 5 4 2 0 1 4 11 15 14 13 11 6 7 8 9 9 2 0 1 0 0 0 2 0 1 0 0 6 5 2 2 2 3 8 13 15 14 10 8 9 7 1 1 1 1 3 6 13 13 13 13 13
14 13 14 14 14 14 14 14 14 14 14 14 6 1 2 13 15 14 15 6 0 1 0 0 1 5 6 2 1 2 2 1 2 1 1 2 2 1 1 0 0 0 0 0 1 2 4 8 13 15 15 14 14 13 11 13 11 4 4 4 5 5 5 6 5 5 5 4 4 3 3 3 2 3 2 2 2 2 3 3 4 3 4 5 4 5 4 5 5 5 5 5 6 4 5 7 5 4 4 2 1 2 8 13 15 14 14 13 5 7 9 10 11 2 0 1 0 0 0 2 4 1 0 0 0 1 5 1 2 2 3 2 6 10 13 15 11 7 9 6 1 1 1 2 3 11 14 13 13 14
14 14 14 14 14 14 14 14 14 13 15 9 1 1 12 14 14 15 13 2 0 1 0 1 3 7 1 7 4 1 1 2 2 2 2 1 2 1 1 1 1 1 1 1 1 1 0 0 2 6 11 13 13 14 11 15 12 5 3 3 2 2 2 2 2 2 4 13 15 14 14 13 12 12 12 12 11 10 10 9 8 8 7 6 6 6 5 5 4 4 3 3 3 3 3 3 3 3 3 5 8 13 15 13 14 14 14 14 7 8 10 8 6 1 1 0 0 0 1 5 2 0 0 0 0 1 2 3 1 2 3 5 6 7 9 13 12 8 7 9 1 2 1 2 2 9 15 14 13 14
14 14 14 14 14 14 14 14 14 14 13 3 4 12 15 14 14 14 12 2 1 0 0 0 7 6 3 6 5 1 0 1 1 0 1 1 1 1 1 1 2 2 1 1 1 1 2 0 0 0 0 2 2 2 2 4 5 6 5 5 5 5 5 5 4 5 5 9 10 11 11 11 12 12 12 12 13 13 13 14 14 14 14 14 14 14 14 14 14 14 13 13 13 13 13 12 12 13 14 15 15 14 13 14 14 13 14 10 6 10 14 8 3 1 1 0 0 0 1 3 0 1 1 2 2 2 1 3 3 1 1 4 6 6 9 8 5 7 8 7 4 1 1 1 2 7 14 14 14 14
15 14 14 14 14 14 14 14 14 15 14 12 15 15 14 14 14 15 12 5 1 1 0 1 5 6 5 9 9 3 1 0 1 4 3 2 1 0 0 0 1 1 1 2 1 1 1 0 0 0 0 1 0 0 0 0 0 0 0 0 0 0 0 1 3 2 5 10 8 1 0 0 0 0 3 2 2 2 2 3 3 3 3 3 3 4 4 5 5 6 6 7 7 7 7 8 8 7 6 6 5 5 4 4 2 7 15 11 13 14 14 12 5 1 1 1 0 0 1 0 0 0 0 0 0 0 0 0 0 0 1 0 7 10 11 12 14 10 6 6 3 1 1 1 2 6 14 14 14 14
15 14 14 14 14 14 14 14 14 14 14 15 14 14 15 14 14 15 13 5 2 2 0 0 4 5 4 11 14 10 10 8 3 3 4 1 1 1 1 1 0 0 1 1 1 1 1 1 1 0 0 0 1 1 0 0 0 0 0 1 0 1 1 2 2 4 11 15 14 1 1 5 5 5 7 4 0 1 0 0 0 0 0 0 0 0 0 0 0 0 0 0 0 0 0 0 0 0 0 0 0 0 0 0 1 11 15 15 15 14 14 14 12 2 1 1 1 1 2 2 2 1 2 4 3 4 5 7 8 8 9 10 12 11 11 14 13 7 6 6 2 1 1 2 2 7 15 14 14 15
15 14 14 14 14 14 14 15 14 14 14 14 14 14 14 14 14 14 15 6 1 1 1 0 3 6 4 4 8 11 11 13 13 10 9 10 10 8 8 5 8 5 2 6 5 0 0 0 1 1 0 1 1 2 2 1 1 1 1 0 1 0 1 3 5 12 14 11 5 1 4 13 15 15 14 14 11 11 10 9 9 8 7 6 6 5 3 3 3 2 2 2 3 3 3 4 5 5 6 7 7 7 8 9 13 15 14 15 14 15 15 15 15 5 1 2 1 1 1 5 11 8 6 11 11 12 11 11 14 15 14 14 13 12 12 10 5 5 7 4 0 1 2 2 2 10 15 14 15 14
15 15 15 15 14 14 14 14 14 14 14 14 14 14 14 15 14 15 15 10 2 2 1 0 1 4 7 4 4 8 10 11 13 13 13 13 9 9 11 12 13 7 6 9 2 0 0 0 0 0 6 4 1 1 1 2 2 2 1 0 0 0 0 0 2 3 2 2 4 10 14 14 14 15 14 15 15 15 15 15 15 15 15 15 15 15 14 14 14 13 13 13 14 14 14 15 15 15 15 15 15 15 15 15 15 14 15 14 14 14 14 14 15 11 1 2 1 1 1 1 8 12 10 10 11 8 9 10 13 13 13 13 15 14 12 7 5 7 6 1 1 1 2 1 4 14 15 15 14 14
15 14 15 15 14 14 14 14 14 14 14 14 15 14 14 15 15 14 15 14 6 1 2 1 0 0 4 7 5 3 6 10 10 10 13 10 10 8 5 6 5 8 8 2 0 0 1 1 0 1 3 2 4 3 3 1 1 1 0 2 4 4 4 8 10 11 12 14 15 15 15 14 15 14 15 14 15 14 14 15 14 14 14 14 14 14 15 15 15 15 15 15 15 15 15 15 14 14 14 15 14 14 14 14 14 15 15 15 14 15 14 14 15 15 8 1 2 1 1 1 1 6 11 10 7 8 11 13 13 13 12 7 9 8 5 7 8 5 2 0 1 1 2 2 11 15 14 14 14 15
15 15 14 15 15 14 14 14 14 14 15 15 15 15 15 15 15 14 15 15 14 5 1 2 1 0 0 2 5 6 5 3 3 4 6 6 7 5 5 6 7 5 1 0 1 0 1 0 3 11 12 13 13 14 14 12 12 12 9 10 15 14 15 15 15 15 15 15 14 14 14 14 14 14 14 14 14 14 14 14 14 14 14 14 14 14 14 14 14 14 14 14 14 14 14 14 14 14 14 14 14 14 14 14 14 14 14 14 14 14 14 14 14 15 15 7 0 1 2 1 1 0 2 6 8 9 10 8 7 8 7 5 7 8 8 6 2 1 1 1 2 1 2 11 15 15 15 15 14 15
15 14 14 14 14 14 14 14 14 14 14 14 14 14 14 14 14 15 14 14 15 14 6 1 0 2 0 0 0 2 4 5 5 5 5 5 4 5 4 3 0 0 0 0 0 0 0 4 13 15 15 14 14 14 14 14 14 14 15 14 14 14 13 13 13 13 13 13 13 13 13 13 13 13 13 13 13 13 13 13 13 13 13 13 13 13 13 13 13 13 13 13 14 14 14 14 14 14 14 14 14 14 14 14 14 14 14 14 14 14 14 14 14 14 15 15 10 2 0 1 1 1 1 0 1 3 4 5 6 7 6 6 5 3 1 0 0 1 1 1 1 4 12 15 14 15 15 15 14 15
15 14 14 14 14 14 14 14 14 14 14 14 14 14 14 14 14 14 14 14 14 14 14 9 3 0 1 1 1 0 0 1 0 1 1 1 1 0 0 0 0 0 0 0 0 1 6 11 10 10 10 9 10 9 9 9 9 9 9 9 9 9 9 9 9 9 9 9 9 9 8 8 8 8 8 9 9 9 9 9 9 9 9 9 9 9 9 9 9 9 9 9 10 10 10 10 10 10 10 10 11 11 11 11 11 11 11 12 12 12 12 12 13 13 12 13 14 12 6 2 0 1 1 1 1 0 0 0 0 0 0 0 0 0 1 1 1 1 1 3 8 14 15 14 14 15 15 14 14 15
15 14 14 14 14 14 14 14 14 14 14 14 14 14 14 14 13 13 13 13 12 12 12 12 12 8 3 1 0 1 1 1 0 0 0 0 0 0 0 0 0 0 0 1 5 7 8 7 7 7 7 7 7 6 6 7 6 7 6 6 7 6 6 6 6 6 6 6 7 6 6 6 6 6 7 6 6 6 6 6 6 6 6 6 6 6 6 6 6 6 6 6 6 6 6 7 7 7 7 7 7 7 7 7 7 7 7 8 8 8 8 8 8 8 8 9 9 9 11 9 5 3 1 1 1 1 1 1 1 1 1 1 1 1 1 1 1 4 8 13 15 14 14 14 14 14 14 14 14 15
15 14 14 14 14 14 14 14 14 14 14 14 14 13 13 13 12 12 12 12 11 11 11 10 10 10 10 8 5 3 1 0 0 0 0 0 0 0 0 0 0 2 4 5 6 5 5 5 5 5 5 5 5 5 5 5 5 6 6 6 6 6 6 6 5 6 6 6 6 6 6 6 6 6 6 6 6 6 6 6 6 6 6 6 6 6 6 6 6 6 6 6 6 6 6 6 6 6 6 6 6 6 6 6 6 6 6 6 6 6 6 6 6 6 6 6 6 6 6 6 7 6 4 2 1 0 0 0 0 0 0 1 1 2 3 6 9 11 12 12 12 13 13 13 14 14 14 14 14 14
15 14 14 14 14 14 14 14 14 14 14 14 14 14 14 13 13 13 13 13 12 12 12 12 12 11 11 11 11 10 9 7 7 7 7 7 7 7 7 7 7 7 7 7 7 7 8 7 7 8 8 7 7 7 7 7 7 7 7 7 7 7 7 7 7 7 7 7 7 7 7 7 7 7 7 7 7 7 7 7 7 7 7 7 7 7 7 7 7 7 7 8 8 8 8 8 8 8 8 8 9 9 9 9 9 9 10 10 10 10 10 10 10 10 10 10 10 10 10 10 10 9 10 10 10 10 10 10 10 11 11 11 12 12 13 13 13 13 13 13 14 14 14 14 14 14 14 14 14 14
15 14 14 14 14 14 14 14 14 14 14 14 14 14 14 14 14 14 14 14 14 14 14 14 14 14 14 14 13 13 13 13 14 14 14 13 13 13 13 13 13 13 13 13 13 12 12 12 12 12 12 12 12 12 12 12 12 12 12 12 12 12 12 12 12 12 12 12 12 12 12 12 12 12 12 12 12 12 12 12 12 12 12 12 12 12 12 12 12 12 12 12 12 12 12 13 13 13 13 13 13 13 13 13 13 13 13 14 14 14 14 14 14 14 14 14 14 14 14 14 15 15 15 14 15 15 15 15 15 15 15 15 15 15 15 15 15 15 15 15 15 14 14 15 15 14 14 14 14 15
